RobotoSerifTextWide-Hairline 01h.ufo
<glyph name="exclam" format="2">
  <advance width="244"/>
  <unicode hex="0021"/>
  <outline>
    <contour>
      <point x="148" y="735" type="line"/>
      <point x="148" y="544"/>
      <point x="137" y="431"/>
      <point x="137" y="172" type="curve"/>
      <point x="107" y="172" type="line"/>
      <point x="107" y="431"/>
      <point x="96" y="543"/>
      <point x="96" y="735" type="curve"/>
    </contour>
    <component base="period" xOffset="23.146800000000006"/>
  </outline>
</glyph>
<glyph name="plus" format="2">
  <advance width="650"/>
  <unicode hex="002B"/>
  <outline>
    <contour>
      <point x="307" y="534" type="line"/>
      <point x="307" y="148" type="line"/>
      <point x="342" y="148" type="line"/>
      <point x="342" y="534" type="line"/>
    </contour>
    <contour>
      <point x="540" y="357" type="line"/>
      <point x="110" y="357" type="line"/>
      <point x="110" y="325" type="line"/>
      <point x="540" y="325" type="line"/>
    </contour>
  </outline>
</glyph>
<glyph name="two" format="2">
  <advance width="664"/>
  <unicode hex="0032"/>
  <outline>
    <contour>
      <point x="400" y="37" type="line" smooth="yes"/>
      <point x="501" y="37"/>
      <point x="543" y="41"/>
      <point x="547" y="77" type="curve" smooth="yes"/>
      <point x="557" y="165" type="line"/>
      <point x="584" y="165" type="line"/>
      <point x="584" y="0" type="line"/>
      <point x="72" y="0" type="line"/>
      <point x="72" y="44" type="line"/>
      <point x="310.42169553393995" y="168.21970691684268"/>
      <point x="517.0" y="289.0"/>
      <point x="517" y="440" type="curve" smooth="yes"/>
      <point x="517" y="544"/>
      <point x="440.1783783783784" y="588.0"/>
      <point x="330" y="588" type="curve" smooth="yes"/>
      <point x="235.89201877934272" y="588.0"/>
      <point x="166.35434755613312" y="559.5558560186474"/>
      <point x="119" y="518" type="curve"/>
      <point x="135" y="547"/>
      <point x="120" y="550"/>
      <point x="147" y="554" type="curve"/>
      <point x="147" y="458" type="line"/>
      <point x="98" y="458" type="line"/>
      <point x="98" y="549" type="line"/>
      <point x="140" y="582"/>
      <point x="219.94871794871796" y="618.0"/>
      <point x="330" y="618" type="curve" smooth="yes"/>
      <point x="467.1929824561404" y="618.0"/>
      <point x="560" y="553"/>
      <point x="560" y="440" type="curve" smooth="yes"/>
      <point x="560" y="276"/>
      <point x="321" y="133"/>
      <point x="108" y="27" type="curve"/>
      <point x="104" y="29"/>
      <point x="102" y="33"/>
      <point x="104" y="37" type="curve"/>
    </contour>
  </outline>
</glyph>
<glyph name="three" format="2">
  <advance width="664"/>
  <unicode hex="0033"/>
  <outline>
    <contour>
      <point x="328" y="-60" type="curve" smooth="yes"/>
      <point x="460.18099547511315" y="-60.0"/>
      <point x="546.0" y="3.0"/>
      <point x="546" y="109" type="curve" smooth="yes"/>
      <point x="546" y="206"/>
      <point x="470.97021276595746" y="269"/>
      <point x="314" y="269" type="curve" smooth="yes"/>
      <point x="227" y="269" type="line"/>
      <point x="227" y="299" type="line"/>
      <point x="300" y="299" type="line" smooth="yes"/>
      <point x="419.2877358490566" y="299"/>
      <point x="509.0" y="347.0"/>
      <point x="509" y="442" type="curve" smooth="yes"/>
      <point x="509.0" y="545.0"/>
      <point x="429.1270718232044" y="588.0"/>
      <point x="326" y="588" type="curve" smooth="yes"/>
      <point x="226" y="588"/>
      <point x="164" y="559"/>
      <point x="132" y="527" type="curve"/>
      <point x="136" y="551"/>
      <point x="153" y="571"/>
      <point x="153" y="573" type="curve"/>
      <point x="153" y="470" type="line"/>
      <point x="104" y="470" type="line"/>
      <point x="104" y="552" type="line"/>
      <point x="139" y="581"/>
      <point x="208" y="618"/>
      <point x="329" y="618" type="curve" smooth="yes"/>
      <point x="459" y="618"/>
      <point x="552" y="553"/>
      <point x="552" y="454" type="curve" smooth="yes"/>
      <point x="552.0" y="335.0"/>
      <point x="433.51260504201684" y="279.0"/>
      <point x="317" y="279" type="curve"/>
      <point x="335" y="289" type="line"/>
      <point x="520.7611940298507" y="289.0"/>
      <point x="589" y="210"/>
      <point x="589" y="109" type="curve" smooth="yes"/>
      <point x="589.0" y="-10.0"/>
      <point x="479.2613636363636" y="-90.0"/>
      <point x="328" y="-90" type="curve" smooth="yes"/>
      <point x="178.45833333333334" y="-90.0"/>
      <point x="81" y="-19"/>
      <point x="37" y="75" type="curve"/>
      <point x="67" y="93" type="line"/>
      <point x="101" y="17"/>
      <point x="187.38372093023256" y="-60.0"/>
    </contour>
  </outline>
</glyph>
<glyph name="F" format="2">
  <advance width="673"/>
  <unicode hex="0046"/>
  <outline>
    <contour>
      <point x="204" y="680" type="line"/>
      <point x="413" y="680" type="line" smooth="yes"/>
      <point x="513" y="680"/>
      <point x="555" y="673"/>
      <point x="559" y="637" type="curve" smooth="yes"/>
      <point x="569" y="546" type="line"/>
      <point x="596" y="546" type="line"/>
      <point x="596" y="710" type="line"/>
      <point x="52" y="710" type="line"/>
      <point x="52" y="680" type="line"/>
      <point x="65" y="680" type="line" smooth="yes"/>
      <point x="122" y="680"/>
      <point x="164" y="673"/>
      <point x="164" y="644" type="curve" smooth="yes"/>
      <point x="164" y="66" type="line" smooth="yes"/>
      <point x="164.0" y="37.0"/>
      <point x="122" y="30"/>
      <point x="65" y="30" type="curve" smooth="yes"/>
      <point x="52" y="30" type="line"/>
      <point x="52" y="0" type="line"/>
      <point x="335" y="0" type="line"/>
      <point x="335" y="30" type="line"/>
      <point x="315" y="30" type="line" smooth="yes"/>
      <point x="265" y="30"/>
      <point x="204.0" y="31.0"/>
      <point x="204" y="66" type="curve" smooth="yes"/>
    </contour>
    <contour>
      <point x="190" y="372" type="curve"/>
      <point x="190" y="343" type="line"/>
      <point x="295" y="342"/>
      <point x="400" y="341"/>
      <point x="505" y="339" type="curve"/>
      <point x="505" y="376" type="line"/>
      <point x="400" y="374"/>
      <point x="295" y="373"/>
    </contour>
  </outline>
</glyph>
<glyph name="G" format="2">
  <advance width="853"/>
  <unicode hex="0047"/>
  <anchor x="425.5248" y="741.0" name="top"/>
  <anchor x="425.5248" y="0.0" name="bottom"/>
  <outline>
    <contour>
      <point x="735" y="289" type="line" smooth="yes"/>
      <point x="735.0" y="318.0"/>
      <point x="772.0" y="323"/>
      <point x="822" y="323" type="curve" smooth="yes"/>
      <point x="827" y="323" type="line"/>
      <point x="827" y="353" type="line"/>
      <point x="589" y="353" type="line"/>
      <point x="589" y="323" type="line"/>
      <point x="602" y="323" type="line" smooth="yes"/>
      <point x="658.0" y="323"/>
      <point x="701.0" y="318.0"/>
      <point x="701" y="289" type="curve" smooth="yes"/>
      <point x="701" y="112" type="line"/>
      <point x="672.2922296712079" y="83.29222967120779"/>
      <point x="597.34375" y="20.0"/>
      <point x="453" y="20" type="curve" smooth="yes"/>
      <point x="235.1034482758621" y="20.0"/>
      <point x="97.0" y="150.0"/>
      <point x="97" y="355" type="curve" smooth="yes"/>
      <point x="97" y="557"/>
      <point x="236.99999999999997" y="690.0"/>
      <point x="427" y="690" type="curve" smooth="yes"/>
      <point x="578.5451263537906" y="690.0"/>
      <point x="667" y="611"/>
      <point x="705" y="506" type="curve"/>
      <point x="737" y="506" type="line"/>
      <point x="737" y="710" type="line"/>
      <point x="711" y="710" type="line"/>
      <point x="697" y="548" type="line"/>
      <point x="714" y="567" type="line"/>
      <point x="668" y="660"/>
      <point x="557.4545454545455" y="720.0"/>
      <point x="427" y="720" type="curve" smooth="yes"/>
      <point x="218" y="720"/>
      <point x="54" y="569"/>
      <point x="54" y="355" type="curve" smooth="yes"/>
      <point x="54.0" y="137.0"/>
      <point x="213.20822622107968" y="-10.0"/>
      <point x="451" y="-10" type="curve" smooth="yes"/>
      <point x="590.0821917808219" y="-10.0"/>
      <point x="696.2161296840834" y="51.27708933856851"/>
      <point x="735" y="101" type="curve"/>
    </contour>
  </outline>
</glyph>
<glyph name="K" format="2">
  <advance width="773"/>
  <unicode hex="004B"/>
  <anchor x="393.5568" y="741.0" name="top"/>
  <anchor x="393.5568" y="0.0" name="bottom"/>
  <outline>
    <contour>
      <point x="52" y="0" type="line"/>
      <point x="316" y="0" type="line"/>
      <point x="316" y="30" type="line"/>
      <point x="305" y="30" type="line" smooth="yes"/>
      <point x="261" y="30"/>
      <point x="204.0" y="33.0"/>
      <point x="204" y="40" type="curve" smooth="yes"/>
      <point x="204" y="670" type="line" smooth="yes"/>
      <point x="204" y="677"/>
      <point x="261" y="680"/>
      <point x="305" y="680" type="curve" smooth="yes"/>
      <point x="316" y="680" type="line"/>
      <point x="316" y="710" type="line"/>
      <point x="52" y="710" type="line"/>
      <point x="52" y="680" type="line"/>
      <point x="65" y="680" type="line" smooth="yes"/>
      <point x="122" y="680"/>
      <point x="164" y="673"/>
      <point x="164" y="644" type="curve" smooth="yes"/>
      <point x="164" y="66" type="line" smooth="yes"/>
      <point x="164.0" y="37.0"/>
      <point x="122" y="30"/>
      <point x="65" y="30" type="curve" smooth="yes"/>
      <point x="52" y="30" type="line"/>
    </contour>
    <contour>
      <point x="505" y="0" type="line"/>
      <point x="755" y="0" type="line"/>
      <point x="755" y="30" type="line"/>
      <point x="743" y="30" type="line" smooth="yes"/>
      <point x="691.5288461538462" y="30"/>
      <point x="673.277721290715" y="34.963947302440275"/>
      <point x="642" y="63" type="curve" smooth="yes"/>
      <point x="285" y="383" type="line"/>
      <point x="290" y="357" type="line"/>
      <point x="630" y="652" type="line" smooth="yes"/>
      <point x="655.8265755094225" y="674.4083522802342"/>
      <point x="680.0" y="680"/>
      <point x="722" y="680" type="curve" smooth="yes"/>
      <point x="741" y="680" type="line"/>
      <point x="741" y="710" type="line"/>
      <point x="501" y="710" type="line"/>
      <point x="501" y="680" type="line"/>
      <point x="511" y="680" type="line" smooth="yes"/>
      <point x="554" y="680"/>
      <point x="602" y="677"/>
      <point x="604" y="670" type="curve"/>
      <point x="254" y="367" type="line"/>
      <point x="254" y="361" type="line"/>
      <point x="613" y="41" type="line"/>
      <point x="613" y="34"/>
      <point x="559" y="30"/>
      <point x="516" y="30" type="curve" smooth="yes"/>
      <point x="505" y="30" type="line"/>
    </contour>
  </outline>
</glyph>
<glyph name="L" format="2">
  <advance width="673"/>
  <unicode hex="004C"/>
  <anchor x="409.3076" y="741.0" name="top"/>
  <anchor x="511.1536" y="710.0" name="right"/>
  <anchor x="510.90520000000004" y="410.0" name="mid"/>
  <anchor x="409.3076" y="0.0" name="bottom"/>
  <outline>
    <contour>
      <point x="320" y="710" type="line"/>
      <point x="320" y="680" type="line"/>
      <point x="307" y="680" type="line" smooth="yes"/>
      <point x="247" y="680"/>
      <point x="204" y="673"/>
      <point x="204" y="644" type="curve" smooth="yes"/>
      <point x="204" y="30" type="line"/>
      <point x="426" y="30" type="line" smooth="yes"/>
      <point x="526" y="30"/>
      <point x="565" y="37"/>
      <point x="569" y="73" type="curve" smooth="yes"/>
      <point x="581" y="196" type="line"/>
      <point x="608" y="196" type="line"/>
      <point x="608" y="0" type="line"/>
      <point x="52" y="0" type="line"/>
      <point x="52" y="30" type="line"/>
      <point x="65" y="30" type="line" smooth="yes"/>
      <point x="122" y="30"/>
      <point x="164.0" y="37.0"/>
      <point x="164" y="66" type="curve" smooth="yes"/>
      <point x="164" y="644" type="line" smooth="yes"/>
      <point x="164" y="673"/>
      <point x="122" y="680"/>
      <point x="65" y="680" type="curve" smooth="yes"/>
      <point x="52" y="680" type="line"/>
      <point x="52" y="710" type="line"/>
    </contour>
  </outline>
</glyph>
<glyph name="Q" format="2">
  <advance width="863"/>
  <unicode hex="0051"/>
  <outline>
    <contour>
      <point x="417" y="-6" type="line"/>
      <point x="418" y="-123"/>
      <point x="497" y="-179"/>
      <point x="633" y="-179" type="curve" smooth="yes"/>
      <point x="687" y="-179"/>
      <point x="743" y="-170"/>
      <point x="784" y="-155" type="curve"/>
      <point x="784" y="-112" type="line"/>
      <point x="737" y="-131"/>
      <point x="684.2704402515724" y="-145.0"/>
      <point x="627" y="-145" type="curve" smooth="yes"/>
      <point x="507.6741573033708" y="-145.0"/>
      <point x="443.9605164495322" y="-96.36876308288477"/>
      <point x="447" y="9" type="curve"/>
    </contour>
    <contour>
      <point x="432.0" y="720.0" type="curve" smooth="yes"/>
      <point x="216" y="720.0"/>
      <point x="55.0" y="572.0"/>
      <point x="55" y="355" type="curve" smooth="yes"/>
      <point x="55" y="139"/>
      <point x="216" y="-10.0"/>
      <point x="432.0" y="-10.0" type="curve" smooth="yes"/>
      <point x="648" y="-10.0"/>
      <point x="808" y="139"/>
      <point x="808" y="355" type="curve" smooth="yes"/>
      <point x="808.0" y="572.0"/>
      <point x="648" y="720.0"/>
    </contour>
    <contour>
      <point x="432.0" y="20.0" type="curve" smooth="yes"/>
      <point x="240" y="20.0"/>
      <point x="98.0" y="150"/>
      <point x="98" y="355" type="curve" smooth="yes"/>
      <point x="98.0" y="560"/>
      <point x="240" y="690.0"/>
      <point x="432.0" y="690.0" type="curve" smooth="yes"/>
      <point x="623" y="690.0"/>
      <point x="765.0" y="560"/>
      <point x="765" y="355" type="curve" smooth="yes"/>
      <point x="765.0" y="150"/>
      <point x="623" y="20.0"/>
    </contour>
  </outline>
</glyph>
<glyph name="R" format="2">
  <advance width="759"/>
  <unicode hex="0052"/>
  <anchor x="415.8136" y="741.0" name="top"/>
  <anchor x="415.8136" y="0.0" name="bottom"/>
  <outline>
    <contour>
      <point x="52" y="0" type="line"/>
      <point x="52" y="30" type="line"/>
      <point x="65" y="30" type="line" smooth="yes"/>
      <point x="122" y="30"/>
      <point x="164" y="37"/>
      <point x="164" y="66" type="curve" smooth="yes"/>
      <point x="164" y="644" type="line" smooth="yes"/>
      <point x="164.0" y="673.0"/>
      <point x="122" y="680"/>
      <point x="65" y="680" type="curve" smooth="yes"/>
      <point x="52" y="680" type="line"/>
      <point x="52" y="710" type="line"/>
      <point x="378" y="710" type="line" smooth="yes"/>
      <point x="535.0" y="710.0"/>
      <point x="638.0" y="638.0"/>
      <point x="638" y="516" type="curve" smooth="yes"/>
      <point x="638" y="416"/>
      <point x="558.8468446317077" y="343.79590170472704"/>
      <point x="447" y="324" type="curve" smooth="yes"/>
      <point x="423.2096715426938" y="320.8969136794818"/>
      <point x="403.4375" y="319"/>
      <point x="379" y="319" type="curve" smooth="yes"/>
      <point x="194" y="319" type="line"/>
      <point x="194" y="349" type="line"/>
      <point x="379" y="349" type="line" smooth="yes"/>
      <point x="524.3457943925233" y="349"/>
      <point x="595.0" y="425.0"/>
      <point x="595" y="516" type="curve" smooth="yes"/>
      <point x="595.0" y="622"/>
      <point x="510.0" y="680.0"/>
      <point x="376" y="680" type="curve" smooth="yes"/>
      <point x="204" y="680" type="line"/>
      <point x="204" y="40" type="line" smooth="yes"/>
      <point x="204" y="33"/>
      <point x="254" y="30"/>
      <point x="294" y="30" type="curve" smooth="yes"/>
      <point x="303" y="30" type="line"/>
      <point x="303" y="0" type="line"/>
    </contour>
    <contour>
      <point x="412" y="330" type="line"/>
      <point x="446" y="345" type="line"/>
      <point x="627" y="59" type="line" smooth="yes"/>
      <point x="642" y="35"/>
      <point x="675" y="30"/>
      <point x="716" y="30" type="curve" smooth="yes"/>
      <point x="732" y="30" type="line"/>
      <point x="732" y="0" type="line"/>
      <point x="614" y="0" type="line"/>
    </contour>
  </outline>
</glyph>
<glyph name="S" format="2">
  <advance width="718"/>
  <unicode hex="0053"/>
  <anchor x="403.15680000000003" y="741.0" name="top"/>
  <anchor x="403.15680000000003" y="0.0" name="bottom"/>
  <outline>
    <contour>
      <point x="415" y="20" type="curve" smooth="yes"/>
      <point x="275.2775800711744" y="20.0"/>
      <point x="157.12182705807774" y="91.55098027165636"/>
      <point x="122" y="221" type="curve"/>
      <point x="82" y="221" type="line"/>
      <point x="82" y="0" type="line"/>
      <point x="111" y="0" type="line"/>
      <point x="121" y="170" type="line"/>
      <point x="121.0" y="178.0"/>
      <point x="115.91173447286252" y="176.22853236911632"/>
      <point x="102" y="188" type="curve"/>
      <point x="142.17641435378613" y="62.44870514441834"/>
      <point x="258.0" y="-10.0"/>
      <point x="414" y="-10" type="curve" smooth="yes"/>
      <point x="548.0082644628098" y="-10.0"/>
      <point x="644" y="57"/>
      <point x="644" y="184" type="curve" smooth="yes"/>
      <point x="644" y="314"/>
      <point x="523" y="345"/>
      <point x="382" y="386" type="curve" smooth="yes"/>
      <point x="236" y="428"/>
      <point x="158" y="451"/>
      <point x="158" y="554" type="curve" smooth="yes"/>
      <point x="158.0" y="641.0"/>
      <point x="224.0" y="690.0"/>
      <point x="343" y="690" type="curve" smooth="yes"/>
      <point x="453.0" y="690.0"/>
      <point x="533.0" y="632.0"/>
      <point x="567" y="524" type="curve"/>
      <point x="598" y="524" type="line"/>
      <point x="598" y="710" type="line"/>
      <point x="572" y="710" type="line"/>
      <point x="561" y="565" type="line"/>
      <point x="578.3431797871759" y="558.496307579809"/>
      <point x="577.5989600530942" y="550.7326400353961"/>
      <point x="584" y="555" type="curve"/>
      <point x="555.0" y="661.0"/>
      <point x="466.0" y="720.0"/>
      <point x="344" y="720" type="curve" smooth="yes"/>
      <point x="206.0" y="720.0"/>
      <point x="118.0" y="659.0"/>
      <point x="118" y="549" type="curve" smooth="yes"/>
      <point x="118" y="430"/>
      <point x="221" y="395"/>
      <point x="374" y="350" type="curve" smooth="yes"/>
      <point x="505" y="311"/>
      <point x="604.0" y="294.0"/>
      <point x="604" y="177" type="curve" smooth="yes"/>
      <point x="604.0" y="70.0"/>
      <point x="526.8955223880597" y="20.0"/>
    </contour>
  </outline>
</glyph>
<glyph name="V" format="2">
  <advance width="784"/>
  <unicode hex="0056"/>
  <outline>
    <contour>
      <point x="404" y="7" type="line"/>
      <point x="130" y="670" type="line"/>
      <point x="130" y="677"/>
      <point x="186" y="680"/>
      <point x="230" y="680" type="curve" smooth="yes"/>
      <point x="250" y="680" type="line"/>
      <point x="250" y="710" type="line"/>
      <point x="12" y="710" type="line"/>
      <point x="12" y="680" type="line"/>
      <point x="17" y="680" type="line"/>
      <point x="57" y="680"/>
      <point x="82" y="678"/>
      <point x="93" y="652" type="curve" smooth="yes"/>
      <point x="363" y="0" type="line"/>
      <point x="424" y="0" type="line"/>
      <point x="685" y="637" type="line" smooth="yes"/>
      <point x="700" y="674"/>
      <point x="723" y="680"/>
      <point x="766" y="680" type="curve"/>
      <point x="772" y="680" type="line"/>
      <point x="772" y="710" type="line"/>
      <point x="541" y="710" type="line"/>
      <point x="541" y="680" type="line"/>
      <point x="558" y="680" type="line" smooth="yes"/>
      <point x="602" y="680"/>
      <point x="656" y="673"/>
      <point x="656" y="662" type="curve"/>
      <point x="389" y="12" type="line"/>
    </contour>
  </outline>
</glyph>
<glyph name="W" format="2">
  <advance width="1114"/>
  <unicode hex="0057"/>
  <guideline x="499" y="54" angle="0" identifier="mO3hMxlbnq"/>
  <anchor x="566.8908" y="741.0" name="top"/>
  <outline>
    <contour>
      <point x="12" y="710" type="line"/>
      <point x="12" y="680" type="line"/>
      <point x="17" y="680" type="line" smooth="yes"/>
      <point x="60" y="680"/>
      <point x="87" y="677"/>
      <point x="98" y="643" type="curve" smooth="yes"/>
      <point x="306" y="0" type="line"/>
      <point x="353" y="0" type="line"/>
      <point x="568" y="683" type="line"/>
      <point x="549" y="683" type="line"/>
      <point x="778" y="0" type="line"/>
      <point x="826" y="0" type="line"/>
      <point x="1016" y="637" type="line" smooth="yes"/>
      <point x="1026" y="671"/>
      <point x="1055" y="680"/>
      <point x="1096" y="680" type="curve" smooth="yes"/>
      <point x="1102" y="680" type="line"/>
      <point x="1102" y="710" type="line"/>
      <point x="873" y="710" type="line"/>
      <point x="873" y="680" type="line"/>
      <point x="891" y="680" type="line" smooth="yes"/>
      <point x="935" y="680"/>
      <point x="985" y="673"/>
      <point x="985" y="662" type="curve"/>
      <point x="793" y="17" type="line"/>
      <point x="814" y="17" type="line"/>
      <point x="582" y="710" type="line"/>
      <point x="537" y="710" type="line"/>
      <point x="321" y="20" type="line"/>
      <point x="342" y="20" type="line"/>
      <point x="132" y="670" type="line"/>
      <point x="132" y="677"/>
      <point x="188" y="680"/>
      <point x="231" y="680" type="curve" smooth="yes"/>
      <point x="251" y="680" type="line"/>
      <point x="251" y="710" type="line"/>
    </contour>
  </outline>
</glyph>
<glyph name="Z" format="2">
  <advance width="677"/>
  <unicode hex="005A"/>
  <anchor x="349.9448" y="741.0" name="top"/>
  <anchor x="349.9448" y="0.0" name="bottom"/>
  <outline>
    <contour>
      <point x="73" y="30" type="line"/>
      <point x="88" y="15" type="line"/>
      <point x="610" y="678" type="line"/>
      <point x="610" y="710" type="line"/>
      <point x="78" y="710" type="line"/>
      <point x="78" y="540" type="line"/>
      <point x="105" y="540" type="line"/>
      <point x="116" y="637" type="line" smooth="yes"/>
      <point x="120" y="673"/>
      <point x="160" y="680"/>
      <point x="260" y="680" type="curve" smooth="yes"/>
      <point x="580" y="680" type="line"/>
      <point x="570" y="689" type="line"/>
      <point x="52" y="35" type="line"/>
      <point x="52" y="0" type="line"/>
      <point x="625" y="0" type="line"/>
      <point x="625" y="194" type="line"/>
      <point x="597" y="193" type="line"/>
      <point x="587" y="73" type="line" smooth="yes"/>
      <point x="584" y="37"/>
      <point x="541" y="30"/>
      <point x="442" y="30" type="curve" smooth="yes"/>
    </contour>
  </outline>
</glyph>
<glyph name="bracketleft" format="2">
  <advance width="311"/>
  <unicode hex="005B"/>
  <outline>
    <contour>
      <point x="71" y="750" type="line"/>
      <point x="71" y="-130" type="line"/>
      <point x="113" y="-130" type="line"/>
      <point x="113" y="750" type="line"/>
    </contour>
    <contour>
      <point x="281" y="750" type="line"/>
      <point x="105" y="750" type="line"/>
      <point x="105" y="719" type="line"/>
      <point x="281" y="719" type="line"/>
    </contour>
    <contour>
      <point x="281" y="-99" type="line"/>
      <point x="105" y="-99" type="line"/>
      <point x="105" y="-130" type="line"/>
      <point x="281" y="-130" type="line"/>
    </contour>
  </outline>
</glyph>
<glyph name="a" format="2">
  <advance width="606"/>
  <unicode hex="0061"/>
  <anchor x="278.48080000000004" y="553.0" name="top"/>
  <anchor x="457.15520000000004" y="-10.0" name="right"/>
  <anchor x="309.998" y="0.0" name="bottom"/>
  <outline>
    <contour>
      <point x="441" y="306" type="line"/>
      <point x="174.98791085783432" y="281.99890925033094"/>
      <point x="67.0" y="235.38586956521738"/>
      <point x="67" y="123" type="curve" smooth="yes"/>
      <point x="67.0" y="40.378787878787875"/>
      <point x="126.71951219512195" y="-10.0"/>
      <point x="233" y="-10" type="curve" smooth="yes"/>
      <point x="313.2285714285714" y="-10.0"/>
      <point x="397.6740876195256" y="32.50734175044572"/>
      <point x="441" y="98" type="curve"/>
      <point x="441" y="151" type="line"/>
      <point x="412.1423542939054" y="83.3337962753644"/>
      <point x="324.12918660287085" y="21.0"/>
      <point x="234" y="21" type="curve" smooth="yes"/>
      <point x="150.65573770491804" y="21.0"/>
      <point x="110.0" y="60.386138613861384"/>
      <point x="110" y="123" type="curve" smooth="yes"/>
      <point x="110.0" y="216.3856209150327"/>
      <point x="192.98796456222706" y="253.99898087018857"/>
      <point x="441" y="275" type="curve"/>
    </contour>
    <contour>
      <point x="437" y="0" type="line"/>
      <point x="574" y="0" type="line"/>
      <point x="574" y="27" type="line"/>
      <point x="573" y="27" type="line"/>
      <point x="517" y="27"/>
      <point x="477" y="34"/>
      <point x="477" y="63" type="curve" smooth="yes"/>
      <point x="477" y="372" type="line" smooth="yes"/>
      <point x="477" y="484.68456375838923"/>
      <point x="386.0860215053763" y="518.0"/>
      <point x="287" y="518" type="curve" smooth="yes"/>
      <point x="198.8848167539267" y="518.0"/>
      <point x="131.79348719535167" y="485.8386618713685"/>
      <point x="100" y="461" type="curve"/>
      <point x="100" y="383" type="line"/>
      <point x="147" y="383" type="line"/>
      <point x="147" y="467" type="line"/>
      <point x="123.8270495228572" y="466.03446039678573"/>
      <point x="116.06705339082188" y="439.66473304589056"/>
      <point x="119" y="425" type="curve"/>
      <point x="149.7227988728759" y="460.6780890136624"/>
      <point x="205.93023255813955" y="488.0"/>
      <point x="287" y="488" type="curve" smooth="yes"/>
      <point x="383.5753424657534" y="488.0"/>
      <point x="437" y="460.65625"/>
      <point x="437" y="363" type="curve" smooth="yes"/>
      <point x="437" y="110" type="line"/>
      <point x="437" y="110" type="line"/>
    </contour>
  </outline>
</glyph>
<glyph name="b" format="2">
  <advance width="680"/>
  <unicode hex="0062"/>
  <outline>
    <contour>
      <point x="118" y="665" type="curve" smooth="yes"/>
      <point x="118" y="-3" type="line"/>
      <point x="143" y="-3" type="line"/>
      <point x="158" y="134" type="line"/>
      <point x="158" y="134" type="line"/>
      <point x="158" y="735" type="line"/>
      <point x="20" y="735" type="line"/>
      <point x="20" y="710" type="line"/>
      <point x="33" y="708" type="line" smooth="yes"/>
      <point x="91" y="699"/>
      <point x="118.0" y="694.0"/>
    </contour>
    <contour>
      <point x="377" y="-10" type="curve" smooth="yes"/>
      <point x="529" y="-10"/>
      <point x="630" y="99"/>
      <point x="630" y="257" type="curve" smooth="yes"/>
      <point x="630" y="414"/>
      <point x="537" y="518"/>
      <point x="387" y="518" type="curve" smooth="yes"/>
      <point x="282" y="518.0"/>
      <point x="208" y="468"/>
      <point x="151" y="386" type="curve"/>
      <point x="151" y="336" type="line"/>
      <point x="211" y="433"/>
      <point x="290.0" y="488.0"/>
      <point x="380" y="488" type="curve" smooth="yes"/>
      <point x="514" y="488"/>
      <point x="587.0" y="399"/>
      <point x="587" y="257" type="curve" smooth="yes"/>
      <point x="587.0" y="115"/>
      <point x="512.0" y="20.0"/>
      <point x="374" y="20" type="curve" smooth="yes"/>
      <point x="276" y="20.0"/>
      <point x="200" y="78"/>
      <point x="152" y="176" type="curve"/>
      <point x="152" y="117" type="line"/>
      <point x="202" y="38"/>
      <point x="276" y="-10.0"/>
    </contour>
  </outline>
</glyph>
<glyph name="c" format="2">
  <advance width="607"/>
  <unicode hex="0063"/>
  <anchor x="320.2188" y="551.0" name="top"/>
  <anchor x="333.2244" y="0.0" name="bottom"/>
  <outline>
    <contour>
      <point x="320" y="20" type="curve" smooth="yes"/>
      <point x="186.36521739130436" y="20.0"/>
      <point x="94.0" y="107.0"/>
      <point x="94" y="253" type="curve" smooth="yes"/>
      <point x="94.0" y="395.0"/>
      <point x="177.9591836734694" y="488.0"/>
      <point x="336" y="488" type="curve" smooth="yes"/>
      <point x="424.5914634146342" y="488.0"/>
      <point x="481.1273688645877" y="459.80315720927354"/>
      <point x="503" y="426" type="curve"/>
      <point x="513.8785060354976" y="434.90059584722525"/>
      <point x="510.65402389829933" y="452.4486587005669"/>
      <point x="485" y="461" type="curve"/>
      <point x="485" y="379" type="line"/>
      <point x="532" y="379" type="line"/>
      <point x="532" y="457" type="line"/>
      <point x="511.82765034420584" y="475.15511469021476"/>
      <point x="453.8031088082902" y="518.0"/>
      <point x="336" y="518" type="curve" smooth="yes"/>
      <point x="155.89583333333334" y="518.0"/>
      <point x="51.0" y="409.0"/>
      <point x="51" y="253" type="curve" smooth="yes"/>
      <point x="51.0" y="92.0"/>
      <point x="159.39416058394158" y="-10.0"/>
      <point x="321" y="-10" type="curve" smooth="yes"/>
      <point x="449.18181818181813" y="-10.0"/>
      <point x="515.8283957723205" y="53.699692601560855"/>
      <point x="556" y="124" type="curve"/>
      <point x="526" y="142" type="line"/>
      <point x="496.8776200062545" y="85.76368001207774"/>
      <point x="438.2970297029703" y="20.0"/>
    </contour>
  </outline>
</glyph>
<glyph name="e" format="2">
  <advance width="591"/>
  <unicode hex="0065"/>
  <anchor x="300.7072" y="551.0" name="top"/>
  <anchor x="465.4652" y="1.0" name="right"/>
  <anchor x="317.8876" y="0.0" name="bottom"/>
  <outline>
    <contour>
      <point x="316" y="-10" type="curve" smooth="yes"/>
      <point x="423" y="-10"/>
      <point x="489" y="34"/>
      <point x="535" y="102" type="curve"/>
      <point x="507" y="123" type="line"/>
      <point x="475" y="70"/>
      <point x="417" y="20.0"/>
      <point x="316" y="20" type="curve" smooth="yes"/>
      <point x="195.08928571428572" y="20.0"/>
      <point x="94.0" y="102.0"/>
      <point x="94" y="250" type="curve" smooth="yes"/>
      <point x="94" y="400"/>
      <point x="177" y="488"/>
      <point x="307" y="488" type="curve" smooth="yes"/>
      <point x="436" y="488.0"/>
      <point x="494" y="389"/>
      <point x="498" y="267" type="curve"/>
      <point x="514" y="282" type="line"/>
      <point x="73" y="282" type="line"/>
      <point x="73" y="252" type="line"/>
      <point x="539" y="252" type="line"/>
      <point x="538" y="403"/>
      <point x="466.0" y="518.0"/>
      <point x="307" y="518" type="curve" smooth="yes"/>
      <point x="153" y="518"/>
      <point x="51" y="412"/>
      <point x="51" y="252" type="curve" smooth="yes"/>
      <point x="51.0" y="90.0"/>
      <point x="162.1610486891386" y="-10.0"/>
    </contour>
  </outline>
</glyph>
<glyph name="i" format="2">
  <advance width="318"/>
  <unicode hex="0069"/>
  <anchor x="164.1848" y="551.0" name="top"/>
  <anchor x="212.6708" y="-10.0" name="right"/>
  <anchor x="164.4332" y="-10.0" name="bottom"/>
  <outline>
    <contour>
      <point x="146" y="656" type="curve" smooth="yes"/>
      <point x="169" y="656"/>
      <point x="188.0" y="670.0"/>
      <point x="188" y="696" type="curve" smooth="yes"/>
      <point x="188.0" y="722.0"/>
      <point x="169" y="736"/>
      <point x="146" y="736" type="curve" smooth="yes"/>
      <point x="123" y="736"/>
      <point x="104.0" y="722.0"/>
      <point x="104" y="696" type="curve" smooth="yes"/>
      <point x="104.0" y="670.0"/>
      <point x="123" y="656"/>
    </contour>
    <contour>
      <point x="178" y="508" type="line"/>
      <point x="40" y="508" type="line"/>
      <point x="40" y="483" type="line"/>
      <point x="53" y="481" type="line" smooth="yes"/>
      <point x="111" y="472"/>
      <point x="138.0" y="467.0"/>
      <point x="138" y="438" type="curve" smooth="yes"/>
      <point x="138" y="63" type="line" smooth="yes"/>
      <point x="138" y="34"/>
      <point x="98" y="27"/>
      <point x="43" y="27" type="curve" smooth="yes"/>
      <point x="40" y="27" type="line"/>
      <point x="40" y="0" type="line"/>
      <point x="275" y="0" type="line"/>
      <point x="275" y="27" type="line"/>
      <point x="273" y="27" type="line" smooth="yes"/>
      <point x="217" y="27"/>
      <point x="178.0" y="34.0"/>
      <point x="178" y="63" type="curve" smooth="yes"/>
    </contour>
  </outline>
</glyph>
<glyph name="x" format="2">
  <advance width="627"/>
  <unicode hex="0078"/>
  <outline>
    <contour>
      <point x="602" y="0" type="line"/>
      <point x="602" y="29" type="line"/>
      <point x="601" y="29" type="line"/>
      <point x="555" y="29"/>
      <point x="533" y="37"/>
      <point x="510" y="63" type="curve" smooth="yes"/>
      <point x="330" y="269" type="line"/>
      <point x="325" y="273" type="line"/>
      <point x="160" y="469" type="line"/>
      <point x="160.0" y="477"/>
      <point x="215.87128712871288" y="479"/>
      <point x="259" y="479" type="curve" smooth="yes"/>
      <point x="262" y="479" type="line"/>
      <point x="262" y="508" type="line"/>
      <point x="39" y="508" type="line"/>
      <point x="39" y="478" type="line"/>
      <point x="40" y="478" type="line"/>
      <point x="84" y="478"/>
      <point x="106" y="474"/>
      <point x="124" y="452" type="curve" smooth="yes"/>
      <point x="296" y="247" type="line"/>
      <point x="300" y="244" type="line"/>
      <point x="479" y="40" type="line"/>
      <point x="479.0" y="33.0"/>
      <point x="426.1153846153846" y="29"/>
      <point x="379" y="29" type="curve" smooth="yes"/>
      <point x="377" y="29" type="line"/>
      <point x="377" y="0" type="line"/>
    </contour>
    <contour>
      <point x="24" y="0" type="line"/>
      <point x="243" y="0" type="line"/>
      <point x="243" y="29" type="line"/>
      <point x="241" y="29" type="line" smooth="yes"/>
      <point x="198" y="29"/>
      <point x="146" y="37"/>
      <point x="146" y="49" type="curve"/>
      <point x="319" y="242" type="line"/>
      <point x="296" y="264" type="line"/>
      <point x="118" y="67" type="line" smooth="yes"/>
      <point x="93" y="39"/>
      <point x="59" y="29"/>
      <point x="25" y="29" type="curve"/>
      <point x="24" y="29" type="line"/>
    </contour>
    <contour>
      <point x="331" y="250" type="line"/>
      <point x="498" y="441" type="line" smooth="yes"/>
      <point x="524" y="471"/>
      <point x="547" y="479"/>
      <point x="590" y="479.0" type="curve" smooth="yes"/>
      <point x="593" y="479" type="line"/>
      <point x="593" y="508" type="line"/>
      <point x="379" y="508" type="line"/>
      <point x="379" y="479" type="line"/>
      <point x="382" y="479" type="line" smooth="yes"/>
      <point x="424" y="479"/>
      <point x="475.0" y="474.0"/>
      <point x="475" y="464" type="curve"/>
      <point x="311" y="274" type="line"/>
    </contour>
  </outline>
</glyph>
<glyph name="acute" format="2">
  <advance width="581"/>
  <unicode hex="00B4"/>
  <anchor x="255.7512" y="527.0" name="_top"/>
  <outline>
    <contour>
      <point x="300" y="707" type="curve" smooth="yes"/>
      <point x="234" y="590" type="line"/>
      <point x="234" y="576" type="line"/>
      <point x="249" y="576" type="line"/>
      <point x="347" y="682" type="line" smooth="yes"/>
      <point x="363" y="699"/>
      <point x="376" y="714"/>
      <point x="376" y="730" type="curve" smooth="yes"/>
      <point x="376" y="744"/>
      <point x="365" y="754"/>
      <point x="348" y="754" type="curve" smooth="yes"/>
      <point x="327" y="754"/>
      <point x="316" y="737"/>
    </contour>
  </outline>
</glyph>
<glyph name="Lslash" format="2">
  <advance width="673"/>
  <unicode hex="0141"/>
  <outline>
    <contour>
      <point x="52" y="226" type="line"/>
      <point x="52" y="268" type="line"/>
      <point x="452" y="520" type="line"/>
      <point x="452" y="479" type="line"/>
    </contour>
    <component base="L" xOffset="31.224800000000002"/>
  </outline>
</glyph>
<glyph name="lira" format="2">
  <advance width="650"/>
  <unicode hex="20A4"/>
  <outline>
    <contour>
      <point x="54" y="429" type="line"/>
      <point x="54" y="397" type="line"/>
      <point x="463" y="397" type="line"/>
      <point x="463" y="429" type="line"/>
    </contour>
    <contour>
      <point x="54" y="274" type="line"/>
      <point x="54" y="242" type="line"/>
      <point x="463" y="242" type="line"/>
      <point x="463" y="274" type="line"/>
    </contour>
    <contour>
      <point x="50" y="-11" type="line"/>
      <point x="202" y="18"/>
      <point x="266" y="106"/>
      <point x="266" y="219" type="curve" smooth="yes"/>
      <point x="266" y="338"/>
      <point x="167" y="409"/>
      <point x="167" y="533" type="curve" smooth="yes"/>
      <point x="167" y="626"/>
      <point x="242" y="687"/>
      <point x="360" y="687" type="curve" smooth="yes"/>
      <point x="459" y="687"/>
      <point x="509" y="651"/>
      <point x="534" y="626" type="curve"/>
      <point x="539" y="624"/>
      <point x="536" y="661"/>
      <point x="516" y="662" type="curve"/>
      <point x="516" y="561" type="line"/>
      <point x="567" y="561" type="line"/>
      <point x="567" y="655" type="line"/>
      <point x="543" y="674"/>
      <point x="478" y="718"/>
      <point x="360" y="718" type="curve" smooth="yes"/>
      <point x="213" y="718"/>
      <point x="123" y="639"/>
      <point x="123" y="528" type="curve" smooth="yes"/>
      <point x="123" y="405"/>
      <point x="228" y="324"/>
      <point x="228" y="204" type="curve" smooth="yes"/>
      <point x="228" y="121"/>
      <point x="184" y="51"/>
      <point x="50" y="21" type="curve"/>
    </contour>
    <contour>
      <point x="219" y="105" type="line"/>
      <point x="306" y="42"/>
      <point x="356" y="-10"/>
      <point x="440" y="-10" type="curve" smooth="yes"/>
      <point x="544" y="-10"/>
      <point x="599" y="68"/>
      <point x="623" y="151" type="curve"/>
      <point x="592" y="164" type="line"/>
      <point x="569" y="92"/>
      <point x="531" y="36"/>
      <point x="442" y="36" type="curve" smooth="yes"/>
      <point x="378" y="36"/>
      <point x="318" y="74"/>
      <point x="234" y="133" type="curve"/>
    </contour>
  </outline>
</glyph>
<glyph name="guarani" format="2">
  <advance width="649"/>
  <unicode hex="20B2"/>
  <outline>
    <contour>
      <point x="434" y="353" type="line"/>
      <point x="434" y="322" type="line"/>
      <point x="448" y="322" type="line" smooth="yes"/>
      <point x="493" y="322"/>
      <point x="527" y="315"/>
      <point x="527" y="286" type="curve"/>
      <point x="561" y="286" type="line"/>
      <point x="561" y="315"/>
      <point x="588" y="322"/>
      <point x="625" y="322" type="curve" smooth="yes"/>
      <point x="630" y="322" type="line"/>
      <point x="630" y="353" type="line"/>
    </contour>
    <contour>
      <point x="307" y="790" type="line"/>
      <point x="307" y="684" type="line"/>
      <point x="307" y="680" type="line"/>
      <point x="307" y="30" type="line"/>
      <point x="307" y="25" type="line"/>
      <point x="307" y="-120" type="line"/>
      <point x="346" y="-120" type="line"/>
      <point x="346" y="22" type="line"/>
      <point x="346" y="28" type="line"/>
      <point x="346" y="678" type="line"/>
      <point x="346" y="685" type="line"/>
      <point x="346" y="790" type="line"/>
    </contour>
    <contour>
      <point x="343" y="10" type="curve"/>
      <point x="448" y="10"/>
      <point x="525" y="57"/>
      <point x="561" y="105" type="curve"/>
      <point x="561" y="332" type="line"/>
      <point x="527" y="340" type="line"/>
      <point x="527" y="112" type="line"/>
      <point x="504" y="85"/>
      <point x="452" y="41"/>
      <point x="344" y="41" type="curve"/>
      <point x="184" y="41"/>
      <point x="92" y="160"/>
      <point x="92" y="355" type="curve" smooth="yes"/>
      <point x="92" y="555"/>
      <point x="191" y="669"/>
      <point x="348" y="669" type="curve"/>
      <point x="457" y="669"/>
      <point x="504" y="627"/>
      <point x="527" y="595" type="curve"/>
      <point x="543" y="595"/>
      <point x="554" y="631"/>
      <point x="506" y="638" type="curve"/>
      <point x="506" y="537" type="line"/>
      <point x="559" y="537" type="line"/>
      <point x="559" y="627" type="line"/>
      <point x="526" y="658"/>
      <point x="463" y="700"/>
      <point x="348" y="700" type="curve"/>
      <point x="168" y="700"/>
      <point x="49" y="572"/>
      <point x="49" y="355" type="curve" smooth="yes"/>
      <point x="49" y="147"/>
      <point x="163" y="10"/>
    </contour>
  </outline>
</glyph>
<glyph name="notequal" format="2">
  <advance width="650"/>
  <unicode hex="2260"/>
  <outline>
    <contour>
      <point x="520" y="567" type="line"/>
      <point x="97" y="88" type="line"/>
      <point x="133" y="88" type="line"/>
      <point x="555" y="567" type="line"/>
    </contour>
    <component base="equal" xOffset="38.09720000000001" yOffset="0.04600000000000001"/>
  </outline>
</glyph>
<glyph name="hook" format="2">
  <advance width="592"/>
  <unicode hex="2440"/>
  <anchor x="265.22040000000004" y="517.0" name="_top"/>
  <outline>
    <contour>
      <point x="160" y="691" type="line"/>
      <point x="167" y="732"/>
      <point x="206" y="768"/>
      <point x="279" y="768" type="curve" smooth="yes"/>
      <point x="344" y="768"/>
      <point x="381" y="744"/>
      <point x="381" y="699" type="curve" smooth="yes"/>
      <point x="381" y="649"/>
      <point x="324" y="623"/>
      <point x="259" y="620" type="curve"/>
      <point x="289" y="646" type="line"/>
      <point x="289" y="579" type="line"/>
      <point x="247" y="579" type="line"/>
      <point x="247" y="646" type="line"/>
      <point x="300" y="648"/>
      <point x="339" y="663"/>
      <point x="339" y="698" type="curve" smooth="yes"/>
      <point x="339" y="725"/>
      <point x="316" y="741"/>
      <point x="279" y="741" type="curve" smooth="yes"/>
      <point x="228" y="741"/>
      <point x="210" y="719"/>
      <point x="203" y="691" type="curve"/>
    </contour>
  </outline>
</glyph>
<glyph name="Omega" format="2">
  <advance width="876"/>
  <unicode hex="A7B6"/>
  <outline>
    <contour>
      <point x="438" y="720" type="curve" smooth="yes"/>
      <point x="633" y="720"/>
      <point x="775" y="593"/>
      <point x="775" y="439" type="curve" smooth="yes"/>
      <point x="775" y="278"/>
      <point x="678" y="185"/>
      <point x="500" y="12" type="curve"/>
      <point x="505" y="32" type="line"/>
      <point x="632" y="32" type="line" smooth="yes"/>
      <point x="733" y="32"/>
      <point x="776" y="39"/>
      <point x="779" y="75" type="curve" smooth="yes"/>
      <point x="790" y="181" type="line"/>
      <point x="817" y="181" type="line"/>
      <point x="817" y="0" type="line"/>
      <point x="491" y="0" type="line"/>
      <point x="491" y="45" type="line"/>
      <point x="643" y="194"/>
      <point x="731" y="267"/>
      <point x="731" y="439" type="curve" smooth="yes"/>
      <point x="731" y="592"/>
      <point x="613" y="689"/>
      <point x="438" y="689" type="curve" smooth="yes"/>
      <point x="262" y="689"/>
      <point x="145" y="592"/>
      <point x="145" y="439" type="curve" smooth="yes"/>
      <point x="145" y="267"/>
      <point x="232" y="194"/>
      <point x="385" y="45" type="curve"/>
      <point x="385" y="0" type="line"/>
      <point x="58" y="0" type="line"/>
      <point x="58" y="181" type="line"/>
      <point x="86" y="181" type="line"/>
      <point x="96" y="75" type="line" smooth="yes"/>
      <point x="100" y="39"/>
      <point x="143" y="32"/>
      <point x="244" y="32" type="curve" smooth="yes"/>
      <point x="371" y="32" type="line"/>
      <point x="376" y="12" type="line"/>
      <point x="198" y="185"/>
      <point x="100" y="278"/>
      <point x="100" y="439" type="curve" smooth="yes"/>
      <point x="100" y="593"/>
      <point x="243" y="720"/>
    </contour>
  </outline>
</glyph>
<glyph name="E.alt" format="2">
  <advance width="687"/>
  <outline>
    <contour>
      <point x="623" y="189" type="line"/>
      <point x="596" y="189" type="line"/>
      <point x="585" y="74" type="line" smooth="yes"/>
      <point x="582" y="38"/>
      <point x="540" y="31"/>
      <point x="440" y="31" type="curve" smooth="yes"/>
      <point x="204" y="31" type="line"/>
      <point x="204" y="679" type="line"/>
      <point x="407" y="679" type="line" smooth="yes"/>
      <point x="506" y="679"/>
      <point x="547" y="672"/>
      <point x="552" y="636" type="curve" smooth="yes"/>
      <point x="562" y="546" type="line"/>
      <point x="589" y="546" type="line"/>
      <point x="589" y="710" type="line"/>
      <point x="52" y="710" type="line"/>
      <point x="52" y="679" type="line"/>
      <point x="65" y="679" type="line" smooth="yes"/>
      <point x="122" y="679"/>
      <point x="164" y="672"/>
      <point x="164" y="643" type="curve" smooth="yes"/>
      <point x="164" y="67" type="line" smooth="yes"/>
      <point x="164" y="38"/>
      <point x="122" y="31"/>
      <point x="65" y="31" type="curve" smooth="yes"/>
      <point x="52" y="31" type="line"/>
      <point x="52" y="0" type="line"/>
      <point x="623" y="0" type="line"/>
    </contour>
    <contour>
      <point x="182" y="348" type="line"/>
      <point x="445" y="348" type="line" smooth="yes"/>
      <point x="481" y="348"/>
      <point x="492" y="319"/>
      <point x="492" y="285" type="curve" smooth="yes"/>
      <point x="492" y="277" type="line"/>
      <point x="521" y="277" type="line"/>
      <point x="521" y="452" type="line"/>
      <point x="492" y="452" type="line"/>
      <point x="492" y="444" type="line" smooth="yes"/>
      <point x="492" y="409"/>
      <point x="481" y="380"/>
      <point x="445" y="380" type="curve" smooth="yes"/>
      <point x="182" y="380" type="line"/>
    </contour>
  </outline>
</glyph>
<glyph name="acute.pl" format="2">
  <advance width="581"/>
  <anchor x="244.3776" y="489.0" name="_top"/>
  <outline>
    <contour>
      <point x="250" y="703" type="curve" smooth="yes"/>
      <point x="234" y="593" type="line"/>
      <point x="234" y="576" type="line"/>
      <point x="253" y="576" type="line"/>
      <point x="301" y="683" type="line" smooth="yes"/>
      <point x="307" y="699"/>
      <point x="313" y="713"/>
      <point x="313" y="728" type="curve" smooth="yes"/>
      <point x="313" y="745"/>
      <point x="301" y="754"/>
      <point x="286" y="754" type="curve" smooth="yes"/>
      <point x="260" y="754"/>
      <point x="253" y="736"/>
    </contour>
  </outline>
</glyph>
<glyph name="acute.uc" format="2">
  <advance width="581"/>
  <anchor x="234.246" y="727.0" name="_top"/>
  <outline>
    <contour>
      <point x="309" y="868" type="curve" smooth="yes"/>
      <point x="207" y="780" type="line"/>
      <point x="207" y="766" type="line"/>
      <point x="222" y="766" type="line"/>
      <point x="347" y="837" type="line" smooth="yes"/>
      <point x="379" y="856"/>
      <point x="395" y="867"/>
      <point x="395" y="884" type="curve" smooth="yes"/>
      <point x="395" y="897"/>
      <point x="386" y="906"/>
      <point x="370" y="906" type="curve" smooth="yes"/>
      <point x="348" y="906"/>
      <point x="336" y="892"/>
    </contour>
  </outline>
</glyph>
<glyph name="circumflex.uc" format="2">
  <advance width="581"/>
  <anchor x="284.56" y="694.0" name="_top"/>
  <outline>
    <contour>
      <point x="328" y="884" type="line"/>
      <point x="456" y="760" type="line"/>
      <point x="456" y="749" type="line"/>
      <point x="433" y="749" type="line"/>
      <point x="256" y="866" type="line"/>
      <point x="312" y="866" type="line"/>
      <point x="142" y="749" type="line"/>
      <point x="124" y="749" type="line"/>
      <point x="124" y="760" type="line"/>
      <point x="251" y="884" type="line"/>
    </contour>
  </outline>
</glyph>
<glyph name="circumflex_hook.uc" format="2">
  <advance width="592"/>
  <anchor x="282.9344" y="694.0" name="_top"/>
  <outline>
    <contour>
      <point x="375" y="943" type="line"/>
      <point x="385" y="980"/>
      <point x="420" y="1017"/>
      <point x="491" y="1017" type="curve" smooth="yes"/>
      <point x="558" y="1017"/>
      <point x="594" y="993"/>
      <point x="594" y="949" type="curve" smooth="yes"/>
      <point x="594" y="899"/>
      <point x="538" y="877"/>
      <point x="475" y="876" type="curve"/>
      <point x="501" y="902" type="line"/>
      <point x="501" y="839" type="line"/>
      <point x="461" y="839" type="line"/>
      <point x="461" y="901" type="line"/>
      <point x="514" y="904"/>
      <point x="549" y="916"/>
      <point x="549" y="949" type="curve" smooth="yes"/>
      <point x="549" y="974"/>
      <point x="530" y="988"/>
      <point x="491" y="988" type="curve" smooth="yes"/>
      <point x="444" y="988"/>
      <point x="428" y="967"/>
      <point x="418" y="943" type="curve"/>
    </contour>
    <component base="circumflex.uc" xOffset="46.174800000000005"/>
  </outline>
</glyph>
<glyph name="f_l" format="2">
  <advance width="721"/>
  <outline>
    <contour>
      <point x="40" y="508" type="line"/>
      <point x="40" y="480" type="line"/>
      <point x="391" y="480" type="line"/>
      <point x="391" y="508" type="line"/>
    </contour>
    <contour>
      <point x="539" y="38" type="line"/>
      <point x="539" y="31"/>
      <point x="487" y="28"/>
      <point x="455" y="28" type="curve" smooth="yes"/>
      <point x="442" y="28" type="line"/>
      <point x="442" y="0" type="line"/>
      <point x="678" y="0" type="line"/>
      <point x="678" y="28" type="line"/>
      <point x="676" y="28" type="line" smooth="yes"/>
      <point x="620" y="28"/>
      <point x="580" y="35"/>
      <point x="580" y="64" type="curve"/>
      <point x="580" y="735" type="line"/>
      <point x="477" y="735" type="line"/>
      <point x="539" y="703" type="line"/>
    </contour>
    <contour>
      <point x="328" y="0" type="line"/>
      <point x="328" y="28" type="line"/>
      <point x="313" y="28" type="line" smooth="yes"/>
      <point x="250" y="28"/>
      <point x="202" y="31"/>
      <point x="202" y="38" type="curve" smooth="yes"/>
      <point x="202" y="595" type="line" smooth="yes"/>
      <point x="202" y="694"/>
      <point x="257" y="721"/>
      <point x="372" y="721" type="curve" smooth="yes"/>
      <point x="440" y="721"/>
      <point x="508" y="706"/>
      <point x="563" y="671" type="curve"/>
      <point x="572" y="710" type="line"/>
      <point x="529" y="727"/>
      <point x="465" y="752"/>
      <point x="372" y="752" type="curve" smooth="yes"/>
      <point x="239" y="752"/>
      <point x="161" y="709"/>
      <point x="161" y="595" type="curve" smooth="yes"/>
      <point x="161" y="64" type="line"/>
      <point x="161" y="35"/>
      <point x="123" y="28"/>
      <point x="59" y="28" type="curve" smooth="yes"/>
      <point x="46" y="28" type="line"/>
      <point x="46" y="0" type="line"/>
    </contour>
  </outline>
</glyph>
<glyph name="five.old" format="2">
  <advance width="650"/>
  <outline>
    <contour>
      <point x="324" y="-149" type="curve" smooth="yes"/>
      <point x="188" y="-149"/>
      <point x="101" y="-82"/>
      <point x="59" y="5" type="curve"/>
      <point x="83" y="30" type="line"/>
      <point x="120" y="-49"/>
      <point x="201" y="-118"/>
      <point x="324" y="-118" type="curve" smooth="yes"/>
      <point x="468" y="-118"/>
      <point x="551" y="-32"/>
      <point x="551" y="91" type="curve" smooth="yes"/>
      <point x="551" y="206"/>
      <point x="460" y="274"/>
      <point x="345" y="274" type="curve" smooth="yes"/>
      <point x="251" y="274"/>
      <point x="192" y="239"/>
      <point x="137" y="179" type="curve"/>
      <point x="110" y="179" type="line"/>
      <point x="110" y="548" type="line"/>
      <point x="546" y="548" type="line"/>
      <point x="540" y="509" type="line"/>
      <point x="128" y="509" type="line"/>
      <point x="144" y="528" type="line"/>
      <point x="144" y="205" type="line"/>
      <point x="140" y="195"/>
      <point x="135" y="187"/>
      <point x="122" y="199" type="curve"/>
      <point x="173" y="261"/>
      <point x="242" y="305"/>
      <point x="349" y="305" type="curve" smooth="yes"/>
      <point x="508" y="305"/>
      <point x="595" y="204"/>
      <point x="595" y="91" type="curve" smooth="yes"/>
      <point x="595" y="-44"/>
      <point x="493" y="-149"/>
    </contour>
  </outline>
</glyph>
<glyph name="hook.uc" format="2">
  <advance width="592"/>
  <anchor x="253.92319999999998" y="679.0" name="_top"/>
  <outline>
    <contour>
      <point x="145" y="881" type="line"/>
      <point x="152" y="926"/>
      <point x="199" y="964"/>
      <point x="279" y="964" type="curve" smooth="yes"/>
      <point x="352" y="964"/>
      <point x="396" y="937"/>
      <point x="396" y="889" type="curve" smooth="yes"/>
      <point x="396" y="836"/>
      <point x="332" y="807"/>
      <point x="259" y="802" type="curve"/>
      <point x="288" y="829" type="line"/>
      <point x="288" y="762" type="line"/>
      <point x="247" y="762" type="line"/>
      <point x="247" y="828" type="line"/>
      <point x="308" y="831"/>
      <point x="354" y="848"/>
      <point x="354" y="888" type="curve" smooth="yes"/>
      <point x="354" y="918"/>
      <point x="324" y="936"/>
      <point x="279" y="936" type="curve" smooth="yes"/>
      <point x="221" y="936"/>
      <point x="197" y="913"/>
      <point x="188" y="881" type="curve"/>
    </contour>
  </outline>
</glyph>
<glyph name="horncomb" format="2">
  <anchor x="80.1508" y="444.0" name="_top"/>
  <outline>
    <contour>
      <point x="-462" y="493" type="curve"/>
      <point x="-228" y="483"/>
      <point x="-179" y="556"/>
      <point x="-169" y="685" type="curve"/>
      <point x="-211" y="685" type="line"/>
      <point x="-222" y="554"/>
      <point x="-268" y="518"/>
      <point x="-481" y="518" type="curve"/>
      <point x="-474" y="513"/>
      <point x="-468" y="497"/>
    </contour>
  </outline>
</glyph>
<glyph name="minus.sub" format="2">
  <advance width="464"/>
  <outline>
    <contour>
      <point x="406" y="95" type="line"/>
      <point x="58" y="95" type="line"/>
      <point x="58" y="65" type="line"/>
      <point x="406" y="65" type="line"/>
    </contour>
  </outline>
</glyph>
<glyph name="zero.lin" format="2">
  <advance width="650"/>
  <outline>
    <contour>
      <point x="325" y="-11" type="curve" smooth="yes"/>
      <point x="488" y="-11"/>
      <point x="603" y="129"/>
      <point x="603" y="355" type="curve" smooth="yes"/>
      <point x="603" y="582"/>
      <point x="488" y="720"/>
      <point x="325" y="720" type="curve" smooth="yes"/>
      <point x="162" y="720"/>
      <point x="48" y="582"/>
      <point x="48" y="355" type="curve" smooth="yes"/>
      <point x="48" y="129"/>
      <point x="162" y="-11"/>
    </contour>
    <contour>
      <point x="325" y="20" type="curve" smooth="yes"/>
      <point x="177" y="20"/>
      <point x="92" y="141"/>
      <point x="92" y="355" type="curve" smooth="yes"/>
      <point x="92" y="567"/>
      <point x="177" y="689"/>
      <point x="325" y="689" type="curve" smooth="yes"/>
      <point x="473" y="689"/>
      <point x="559" y="567"/>
      <point x="559" y="355" type="curve" smooth="yes"/>
      <point x="559" y="140"/>
      <point x="473" y="20"/>
    </contour>
  </outline>
</glyph>
